<mxfile host="app.diagrams.net" modified="2023-11-11T20:09:41.586Z" agent="Mozilla/5.0 (Windows NT 10.0; Win64; x64) AppleWebKit/537.36 (KHTML, like Gecko) Chrome/119.0.0.0 Safari/537.36" etag="SPyDnID24g-81Sra1Nil" version="22.1.0" type="device">
  <diagram id="C5RBs43oDa-KdzZeNtuy" name="Page-1">
    <mxGraphModel dx="1877" dy="1804" grid="1" gridSize="10" guides="1" tooltips="1" connect="1" arrows="1" fold="1" page="1" pageScale="1" pageWidth="827" pageHeight="1169" background="none" math="0" shadow="0">
      <root>
        <mxCell id="WIyWlLk6GJQsqaUBKTNV-0" />
        <mxCell id="WIyWlLk6GJQsqaUBKTNV-1" parent="WIyWlLk6GJQsqaUBKTNV-0" />
        <mxCell id="Y6SLcv1Vtxi3gwNzsoC4-0" value="frame" style="shape=umlFrame;whiteSpace=wrap;html=1;pointerEvents=0;shadow=0;" parent="WIyWlLk6GJQsqaUBKTNV-1" vertex="1">
          <mxGeometry x="-590" y="-590" width="2470" height="1438" as="geometry" />
        </mxCell>
        <mxCell id="Y6SLcv1Vtxi3gwNzsoC4-12" value="&lt;p style=&quot;margin:0px;margin-top:4px;text-align:center;&quot;&gt;&lt;b&gt;&lt;i&gt;Wallet&lt;/i&gt;&lt;/b&gt;&lt;/p&gt;&lt;hr size=&quot;1&quot;&gt;&lt;p style=&quot;margin:0px;margin-left:4px;&quot;&gt;id : Integer&lt;/p&gt;&lt;p style=&quot;margin:0px;margin-left:4px;&quot;&gt;name : String&lt;/p&gt;&lt;p style=&quot;margin:0px;margin-left:4px;&quot;&gt;number : String&lt;/p&gt;&lt;hr size=&quot;1&quot;&gt;&lt;p style=&quot;margin:0px;margin-left:4px;&quot;&gt;+ get_name(): String&lt;br&gt;+ get_id(): String&lt;/p&gt;&lt;p style=&quot;margin:0px;margin-left:4px;&quot;&gt;+ get_number() : String&lt;/p&gt;" style="verticalAlign=top;align=left;overflow=fill;fontSize=12;fontFamily=Helvetica;html=1;whiteSpace=wrap;shadow=0;gradientDirection=north;backgroundOutline=0;gradientColor=#99F1FF;" parent="WIyWlLk6GJQsqaUBKTNV-1" vertex="1">
          <mxGeometry x="254" y="-30" width="190" height="150" as="geometry" />
        </mxCell>
        <mxCell id="Y6SLcv1Vtxi3gwNzsoC4-19" value="&lt;p style=&quot;margin:0px;margin-top:4px;text-align:center;&quot;&gt;&lt;b&gt;&lt;i&gt;PaymentCompanies&lt;/i&gt;&lt;/b&gt;&lt;/p&gt;&lt;hr size=&quot;1&quot;&gt;&lt;p style=&quot;margin:0px;margin-left:4px;&quot;&gt;&lt;br&gt;&lt;/p&gt;&lt;hr size=&quot;1&quot;&gt;&lt;p style=&quot;margin:0px;margin-left:4px;&quot;&gt;&lt;br&gt;&lt;/p&gt;" style="verticalAlign=top;align=left;overflow=fill;fontSize=12;fontFamily=Helvetica;html=1;whiteSpace=wrap;shadow=0;gradientDirection=north;backgroundOutline=0;gradientColor=#99F1FF;" parent="WIyWlLk6GJQsqaUBKTNV-1" vertex="1">
          <mxGeometry x="261" y="230" width="190" height="140" as="geometry" />
        </mxCell>
        <mxCell id="Y6SLcv1Vtxi3gwNzsoC4-21" value="&lt;p style=&quot;margin:0px;margin-top:4px;text-align:center;&quot;&gt;&lt;b style=&quot;background-color: initial;&quot;&gt;&lt;i&gt;Bills&lt;/i&gt;&lt;/b&gt;&lt;br&gt;&lt;/p&gt;&lt;hr size=&quot;1&quot;&gt;&lt;p style=&quot;margin:0px;margin-left:4px;&quot;&gt;- bill_id: Integer&lt;br&gt;- value: Float&lt;/p&gt;&lt;p style=&quot;margin:0px;margin-left:4px;&quot;&gt;- address : String&lt;/p&gt;&lt;hr size=&quot;1&quot;&gt;&lt;p style=&quot;margin:0px;margin-left:4px;&quot;&gt;+ paid(): Boolean&lt;br&gt;&lt;/p&gt;" style="verticalAlign=top;align=left;overflow=fill;fontSize=12;fontFamily=Helvetica;html=1;whiteSpace=wrap;shadow=0;gradientDirection=north;backgroundOutline=0;gradientColor=#99F1FF;" parent="WIyWlLk6GJQsqaUBKTNV-1" vertex="1">
          <mxGeometry x="645" y="-390" width="190" height="140" as="geometry" />
        </mxCell>
        <mxCell id="Y6SLcv1Vtxi3gwNzsoC4-23" value="&lt;p style=&quot;margin:0px;margin-top:4px;text-align:center;&quot;&gt;&lt;b&gt;Numbers&lt;/b&gt;&lt;/p&gt;&lt;hr size=&quot;1&quot;&gt;&lt;p style=&quot;margin:0px;margin-left:4px;&quot;&gt;- numbers[] : String&lt;/p&gt;&lt;hr size=&quot;1&quot;&gt;&lt;p style=&quot;margin:0px;margin-left:4px;&quot;&gt;+ check_number(number : String):&amp;nbsp; Boolean&lt;/p&gt;" style="verticalAlign=top;align=left;overflow=fill;fontSize=12;fontFamily=Helvetica;html=1;whiteSpace=wrap;shadow=0;gradientDirection=north;backgroundOutline=0;gradientColor=#99F1FF;" parent="WIyWlLk6GJQsqaUBKTNV-1" vertex="1">
          <mxGeometry x="1460" y="25" width="260" height="90" as="geometry" />
        </mxCell>
        <mxCell id="Y6SLcv1Vtxi3gwNzsoC4-34" value="&lt;p style=&quot;margin:0px;margin-top:4px;text-align:center;&quot;&gt;&lt;b&gt;BankAccount&lt;/b&gt;&lt;/p&gt;&lt;hr size=&quot;1&quot;&gt;&lt;p style=&quot;margin:0px;margin-left:4px;&quot;&gt;- bank : Bank&lt;/p&gt;&lt;p style=&quot;margin:0px;margin-left:4px;&quot;&gt;&lt;br&gt;&lt;/p&gt;" style="verticalAlign=top;align=left;overflow=fill;fontSize=12;fontFamily=Helvetica;html=1;whiteSpace=wrap;shadow=0;gradientDirection=north;backgroundOutline=0;gradientColor=#99F1FF;" parent="WIyWlLk6GJQsqaUBKTNV-1" vertex="1">
          <mxGeometry x="970" y="320" width="240" height="80" as="geometry" />
        </mxCell>
        <mxCell id="Y6SLcv1Vtxi3gwNzsoC4-36" value="&lt;p style=&quot;margin:0px;margin-top:4px;text-align:center;&quot;&gt;&lt;b&gt;&lt;i&gt;InstapayAccount&lt;/i&gt;&lt;/b&gt;&lt;/p&gt;&lt;hr size=&quot;1&quot;&gt;&lt;p style=&quot;margin:0px;margin-left:4px;&quot;&gt;- user_name: String&lt;/p&gt;&lt;p style=&quot;margin:0px;margin-left:4px;&quot;&gt;&lt;span style=&quot;background-color: initial;&quot;&gt;- password: String&lt;/span&gt;&lt;br&gt;&lt;/p&gt;&lt;p style=&quot;margin:0px;margin-left:4px;&quot;&gt;- number: String&lt;/p&gt;&lt;p style=&quot;margin:0px;margin-left:4px;&quot;&gt;- balance : Float&lt;/p&gt;&lt;hr size=&quot;1&quot;&gt;&lt;p style=&quot;margin:0px;margin-left:4px;&quot;&gt;+ set_user_name(name : String): void&lt;br&gt;+ set_number(number : String) : String&lt;/p&gt;&lt;p style=&quot;margin:0px;margin-left:4px;&quot;&gt;+ get_user_name() : String&lt;/p&gt;&lt;p style=&quot;margin:0px;margin-left:4px;&quot;&gt;+ get_number() : Integer&lt;/p&gt;&lt;p style=&quot;margin:0px;margin-left:4px;&quot;&gt;+ register ()&amp;nbsp;&lt;/p&gt;&lt;p style=&quot;margin:0px;margin-left:4px;&quot;&gt;+ sign_in ()&lt;/p&gt;&lt;p style=&quot;margin:0px;margin-left:4px;&quot;&gt;+ update_balance(balance: Float)&lt;/p&gt;&lt;p style=&quot;margin:0px;margin-left:4px;&quot;&gt;+&amp;nbsp; transfer ()&lt;/p&gt;&lt;p style=&quot;margin:0px;margin-left:4px;&quot;&gt;+&amp;nbsp; inquire ()&lt;/p&gt;&lt;p style=&quot;margin:0px;margin-left:4px;&quot;&gt;+ pay_bills(bill: Bill): void&lt;/p&gt;" style="verticalAlign=top;align=left;overflow=fill;fontSize=12;fontFamily=Helvetica;html=1;whiteSpace=wrap;shadow=0;gradientDirection=north;backgroundOutline=0;gradientColor=#99F1FF;" parent="WIyWlLk6GJQsqaUBKTNV-1" vertex="1">
          <mxGeometry x="1010" y="-90" width="340" height="320" as="geometry" />
        </mxCell>
        <mxCell id="Y6SLcv1Vtxi3gwNzsoC4-39" value="&lt;p style=&quot;margin:0px;margin-top:4px;text-align:center;&quot;&gt;&lt;br&gt;&lt;b&gt;WalletAccount&lt;/b&gt;&lt;/p&gt;&lt;hr size=&quot;1&quot;&gt;&lt;p style=&quot;margin:0px;margin-left:4px;&quot;&gt;- wallet : Wallet&lt;/p&gt;&lt;p style=&quot;margin:0px;margin-left:4px;&quot;&gt;&lt;br&gt;&lt;/p&gt;&lt;hr size=&quot;1&quot;&gt;&lt;p style=&quot;margin:0px;margin-left:4px;&quot;&gt;&lt;br&gt;&lt;/p&gt;" style="verticalAlign=top;align=left;overflow=fill;fontSize=12;fontFamily=Helvetica;html=1;whiteSpace=wrap;shadow=0;gradientDirection=north;backgroundOutline=0;gradientColor=#99F1FF;" parent="WIyWlLk6GJQsqaUBKTNV-1" vertex="1">
          <mxGeometry x="1240" y="310" width="190" height="140" as="geometry" />
        </mxCell>
        <mxCell id="4EZs6NRq4k3DMp0Py4xL-0" value="" style="endArrow=block;endSize=16;endFill=0;html=1;rounded=0;entryX=0.5;entryY=1;entryDx=0;entryDy=0;exitX=0.466;exitY=-0.035;exitDx=0;exitDy=0;exitPerimeter=0;shadow=0;" parent="WIyWlLk6GJQsqaUBKTNV-1" source="Y6SLcv1Vtxi3gwNzsoC4-34" edge="1">
          <mxGeometry width="160" relative="1" as="geometry">
            <mxPoint x="1070" y="310" as="sourcePoint" />
            <mxPoint x="1190" y="230" as="targetPoint" />
            <Array as="points">
              <mxPoint x="1082" y="260" />
              <mxPoint x="1190" y="260" />
            </Array>
          </mxGeometry>
        </mxCell>
        <mxCell id="4EZs6NRq4k3DMp0Py4xL-2" value="" style="endArrow=block;endSize=16;endFill=0;html=1;rounded=0;entryX=0.5;entryY=1;entryDx=0;entryDy=0;exitX=0.5;exitY=0;exitDx=0;exitDy=0;shadow=0;" parent="WIyWlLk6GJQsqaUBKTNV-1" target="Y6SLcv1Vtxi3gwNzsoC4-12" edge="1">
          <mxGeometry width="160" relative="1" as="geometry">
            <mxPoint x="-44.999999999999545" y="230" as="sourcePoint" />
            <mxPoint x="130" y="140" as="targetPoint" />
            <Array as="points">
              <mxPoint x="-45" y="180" />
              <mxPoint x="350" y="180" />
            </Array>
          </mxGeometry>
        </mxCell>
        <mxCell id="4EZs6NRq4k3DMp0Py4xL-6" value="" style="endArrow=none;html=1;rounded=0;shadow=0;" parent="WIyWlLk6GJQsqaUBKTNV-1" edge="1">
          <mxGeometry width="50" height="50" relative="1" as="geometry">
            <mxPoint x="350" y="230" as="sourcePoint" />
            <mxPoint x="350" y="180" as="targetPoint" />
          </mxGeometry>
        </mxCell>
        <mxCell id="4EZs6NRq4k3DMp0Py4xL-7" value="" style="endArrow=none;html=1;rounded=0;exitX=0.5;exitY=0;exitDx=0;exitDy=0;shadow=0;" parent="WIyWlLk6GJQsqaUBKTNV-1" source="4EZs6NRq4k3DMp0Py4xL-76" edge="1">
          <mxGeometry width="50" height="50" relative="1" as="geometry">
            <mxPoint x="390" y="230" as="sourcePoint" />
            <mxPoint x="350" y="180" as="targetPoint" />
            <Array as="points">
              <mxPoint x="729" y="180" />
            </Array>
          </mxGeometry>
        </mxCell>
        <mxCell id="4EZs6NRq4k3DMp0Py4xL-8" value="" style="endArrow=none;html=1;rounded=0;entryX=0.5;entryY=0;entryDx=0;entryDy=0;shadow=0;" parent="WIyWlLk6GJQsqaUBKTNV-1" target="Y6SLcv1Vtxi3gwNzsoC4-39" edge="1">
          <mxGeometry width="50" height="50" relative="1" as="geometry">
            <mxPoint x="1180" y="260" as="sourcePoint" />
            <mxPoint x="1320" y="235" as="targetPoint" />
            <Array as="points">
              <mxPoint x="1335" y="260" />
            </Array>
          </mxGeometry>
        </mxCell>
        <mxCell id="4EZs6NRq4k3DMp0Py4xL-9" value="&lt;p style=&quot;margin:0px;margin-top:4px;text-align:center;&quot;&gt;&lt;b&gt;&lt;i&gt;TelecomCompanies&lt;/i&gt;&lt;/b&gt;&lt;/p&gt;&lt;hr size=&quot;1&quot;&gt;&lt;p style=&quot;margin:0px;margin-left:4px;&quot;&gt;&lt;br&gt;&lt;/p&gt;&lt;hr size=&quot;1&quot;&gt;&lt;p style=&quot;margin:0px;margin-left:4px;&quot;&gt;&lt;br&gt;&lt;/p&gt;" style="verticalAlign=top;align=left;overflow=fill;fontSize=12;fontFamily=Helvetica;html=1;whiteSpace=wrap;shadow=0;gradientDirection=north;backgroundOutline=0;gradientColor=#99F1FF;" parent="WIyWlLk6GJQsqaUBKTNV-1" vertex="1">
          <mxGeometry x="-140" y="230" width="190" height="140" as="geometry" />
        </mxCell>
        <mxCell id="4EZs6NRq4k3DMp0Py4xL-10" value="VodafoneCash" style="swimlane;fontStyle=1;align=center;verticalAlign=top;childLayout=stackLayout;horizontal=1;startSize=26;horizontalStack=0;resizeParent=1;resizeParentMax=0;resizeLast=0;collapsible=1;marginBottom=0;whiteSpace=wrap;html=1;shadow=0;fillColor=#dae8fc;strokeColor=#6c8ebf;" parent="WIyWlLk6GJQsqaUBKTNV-1" vertex="1">
          <mxGeometry x="-280" y="440" width="160" height="34" as="geometry" />
        </mxCell>
        <mxCell id="4EZs6NRq4k3DMp0Py4xL-12" value="" style="line;strokeWidth=1;align=left;verticalAlign=middle;spacingTop=-1;spacingLeft=3;spacingRight=3;rotatable=0;labelPosition=right;points=[];portConstraint=eastwest;shadow=0;" parent="4EZs6NRq4k3DMp0Py4xL-10" vertex="1">
          <mxGeometry y="26" width="160" height="8" as="geometry" />
        </mxCell>
        <mxCell id="4EZs6NRq4k3DMp0Py4xL-14" value="WePay" style="swimlane;fontStyle=1;align=center;verticalAlign=top;childLayout=stackLayout;horizontal=1;startSize=26;horizontalStack=0;resizeParent=1;resizeParentMax=0;resizeLast=0;collapsible=1;marginBottom=0;whiteSpace=wrap;html=1;shadow=0;fillColor=#dae8fc;strokeColor=#6c8ebf;" parent="WIyWlLk6GJQsqaUBKTNV-1" vertex="1">
          <mxGeometry x="-20" y="440" width="160" height="34" as="geometry" />
        </mxCell>
        <mxCell id="4EZs6NRq4k3DMp0Py4xL-16" value="" style="line;strokeWidth=1;align=left;verticalAlign=middle;spacingTop=-1;spacingLeft=3;spacingRight=3;rotatable=0;labelPosition=right;points=[];portConstraint=eastwest;shadow=0;" parent="4EZs6NRq4k3DMp0Py4xL-14" vertex="1">
          <mxGeometry y="26" width="160" height="8" as="geometry" />
        </mxCell>
        <mxCell id="4EZs6NRq4k3DMp0Py4xL-18" value="Fawry" style="swimlane;fontStyle=1;align=center;verticalAlign=top;childLayout=stackLayout;horizontal=1;startSize=26;horizontalStack=0;resizeParent=1;resizeParentMax=0;resizeLast=0;collapsible=1;marginBottom=0;whiteSpace=wrap;html=1;shadow=0;fillColor=#dae8fc;strokeColor=#6c8ebf;" parent="WIyWlLk6GJQsqaUBKTNV-1" vertex="1">
          <mxGeometry x="164" y="454" width="160" height="34" as="geometry" />
        </mxCell>
        <mxCell id="4EZs6NRq4k3DMp0Py4xL-20" value="" style="line;strokeWidth=1;align=left;verticalAlign=middle;spacingTop=-1;spacingLeft=3;spacingRight=3;rotatable=0;labelPosition=right;points=[];portConstraint=eastwest;shadow=0;" parent="4EZs6NRq4k3DMp0Py4xL-18" vertex="1">
          <mxGeometry y="26" width="160" height="8" as="geometry" />
        </mxCell>
        <mxCell id="4EZs6NRq4k3DMp0Py4xL-22" value="Massari" style="swimlane;fontStyle=1;align=center;verticalAlign=top;childLayout=stackLayout;horizontal=1;startSize=26;horizontalStack=0;resizeParent=1;resizeParentMax=0;resizeLast=0;collapsible=1;marginBottom=0;whiteSpace=wrap;html=1;shadow=0;fillColor=#dae8fc;strokeColor=#6c8ebf;" parent="WIyWlLk6GJQsqaUBKTNV-1" vertex="1">
          <mxGeometry x="360" y="454" width="160" height="34" as="geometry" />
        </mxCell>
        <mxCell id="4EZs6NRq4k3DMp0Py4xL-24" value="" style="line;strokeWidth=1;align=left;verticalAlign=middle;spacingTop=-1;spacingLeft=3;spacingRight=3;rotatable=0;labelPosition=right;points=[];portConstraint=eastwest;shadow=0;" parent="4EZs6NRq4k3DMp0Py4xL-22" vertex="1">
          <mxGeometry y="26" width="160" height="8" as="geometry" />
        </mxCell>
        <mxCell id="4EZs6NRq4k3DMp0Py4xL-41" value="" style="endArrow=block;endSize=16;endFill=0;html=1;rounded=0;entryX=0.5;entryY=1;entryDx=0;entryDy=0;exitX=0.5;exitY=0;exitDx=0;exitDy=0;shadow=0;" parent="WIyWlLk6GJQsqaUBKTNV-1" target="4EZs6NRq4k3DMp0Py4xL-9" edge="1">
          <mxGeometry width="160" relative="1" as="geometry">
            <mxPoint x="-200" y="440" as="sourcePoint" />
            <mxPoint x="-60" y="390" as="targetPoint" />
            <Array as="points">
              <mxPoint x="-200" y="400" />
              <mxPoint x="-150" y="400" />
              <mxPoint x="-45" y="400" />
            </Array>
          </mxGeometry>
        </mxCell>
        <mxCell id="4EZs6NRq4k3DMp0Py4xL-42" value="" style="endArrow=none;html=1;rounded=0;exitX=0.5;exitY=0;exitDx=0;exitDy=0;shadow=0;" parent="WIyWlLk6GJQsqaUBKTNV-1" source="4EZs6NRq4k3DMp0Py4xL-14" edge="1">
          <mxGeometry width="50" height="50" relative="1" as="geometry">
            <mxPoint x="-40" y="430" as="sourcePoint" />
            <mxPoint x="-45" y="400" as="targetPoint" />
            <Array as="points">
              <mxPoint x="60" y="400" />
            </Array>
          </mxGeometry>
        </mxCell>
        <mxCell id="4EZs6NRq4k3DMp0Py4xL-47" value="" style="endArrow=block;endSize=16;endFill=0;html=1;rounded=0;entryX=0.5;entryY=1;entryDx=0;entryDy=0;exitX=0.5;exitY=0;exitDx=0;exitDy=0;shadow=0;" parent="WIyWlLk6GJQsqaUBKTNV-1" source="4EZs6NRq4k3DMp0Py4xL-18" target="Y6SLcv1Vtxi3gwNzsoC4-19" edge="1">
          <mxGeometry width="160" relative="1" as="geometry">
            <mxPoint x="194" y="440" as="sourcePoint" />
            <mxPoint x="299" y="370" as="targetPoint" />
            <Array as="points">
              <mxPoint x="244" y="400" />
              <mxPoint x="356" y="400" />
            </Array>
          </mxGeometry>
        </mxCell>
        <mxCell id="4EZs6NRq4k3DMp0Py4xL-48" value="" style="endArrow=none;html=1;rounded=0;entryX=0.535;entryY=0.007;entryDx=0;entryDy=0;entryPerimeter=0;shadow=0;" parent="WIyWlLk6GJQsqaUBKTNV-1" target="4EZs6NRq4k3DMp0Py4xL-22" edge="1">
          <mxGeometry width="50" height="50" relative="1" as="geometry">
            <mxPoint x="354" y="400" as="sourcePoint" />
            <mxPoint x="364" y="380" as="targetPoint" />
            <Array as="points">
              <mxPoint x="446" y="400" />
            </Array>
          </mxGeometry>
        </mxCell>
        <mxCell id="4EZs6NRq4k3DMp0Py4xL-52" value="" style="endArrow=none;html=1;rounded=0;entryX=0;entryY=0.5;entryDx=0;entryDy=0;exitX=1;exitY=0.5;exitDx=0;exitDy=0;shadow=0;" parent="WIyWlLk6GJQsqaUBKTNV-1" source="Y6SLcv1Vtxi3gwNzsoC4-36" target="Y6SLcv1Vtxi3gwNzsoC4-23" edge="1">
          <mxGeometry width="50" height="50" relative="1" as="geometry">
            <mxPoint x="1450" y="150" as="sourcePoint" />
            <mxPoint x="1500" y="100" as="targetPoint" />
          </mxGeometry>
        </mxCell>
        <mxCell id="4EZs6NRq4k3DMp0Py4xL-54" value="WaterBill" style="swimlane;fontStyle=1;align=center;verticalAlign=top;childLayout=stackLayout;horizontal=1;startSize=26;horizontalStack=0;resizeParent=1;resizeParentMax=0;resizeLast=0;collapsible=1;marginBottom=0;whiteSpace=wrap;html=1;shadow=0;fillColor=#dae8fc;strokeColor=#6c8ebf;" parent="WIyWlLk6GJQsqaUBKTNV-1" vertex="1">
          <mxGeometry x="450" y="-168" width="160" height="34" as="geometry" />
        </mxCell>
        <mxCell id="4EZs6NRq4k3DMp0Py4xL-56" value="" style="line;strokeWidth=1;align=left;verticalAlign=middle;spacingTop=-1;spacingLeft=3;spacingRight=3;rotatable=0;labelPosition=right;points=[];portConstraint=eastwest;shadow=0;" parent="4EZs6NRq4k3DMp0Py4xL-54" vertex="1">
          <mxGeometry y="26" width="160" height="8" as="geometry" />
        </mxCell>
        <mxCell id="4EZs6NRq4k3DMp0Py4xL-58" value="GasBill" style="swimlane;fontStyle=1;align=center;verticalAlign=top;childLayout=stackLayout;horizontal=1;startSize=26;horizontalStack=0;resizeParent=1;resizeParentMax=0;resizeLast=0;collapsible=1;marginBottom=0;whiteSpace=wrap;html=1;shadow=0;fillColor=#dae8fc;strokeColor=#6c8ebf;" parent="WIyWlLk6GJQsqaUBKTNV-1" vertex="1">
          <mxGeometry x="660" y="-168" width="160" height="34" as="geometry" />
        </mxCell>
        <mxCell id="4EZs6NRq4k3DMp0Py4xL-60" value="" style="line;strokeWidth=1;align=left;verticalAlign=middle;spacingTop=-1;spacingLeft=3;spacingRight=3;rotatable=0;labelPosition=right;points=[];portConstraint=eastwest;shadow=0;" parent="4EZs6NRq4k3DMp0Py4xL-58" vertex="1">
          <mxGeometry y="26" width="160" height="8" as="geometry" />
        </mxCell>
        <mxCell id="4EZs6NRq4k3DMp0Py4xL-62" value="ElectricityBill" style="swimlane;fontStyle=1;align=center;verticalAlign=top;childLayout=stackLayout;horizontal=1;startSize=26;horizontalStack=0;resizeParent=1;resizeParentMax=0;resizeLast=0;collapsible=1;marginBottom=0;whiteSpace=wrap;html=1;shadow=0;fillColor=#dae8fc;strokeColor=#6c8ebf;" parent="WIyWlLk6GJQsqaUBKTNV-1" vertex="1">
          <mxGeometry x="870" y="-168" width="160" height="34" as="geometry" />
        </mxCell>
        <mxCell id="4EZs6NRq4k3DMp0Py4xL-64" value="" style="line;strokeWidth=1;align=left;verticalAlign=middle;spacingTop=-1;spacingLeft=3;spacingRight=3;rotatable=0;labelPosition=right;points=[];portConstraint=eastwest;shadow=0;" parent="4EZs6NRq4k3DMp0Py4xL-62" vertex="1">
          <mxGeometry y="26" width="160" height="8" as="geometry" />
        </mxCell>
        <mxCell id="4EZs6NRq4k3DMp0Py4xL-66" value="" style="endArrow=block;endSize=16;endFill=0;html=1;rounded=0;entryX=0.5;entryY=1;entryDx=0;entryDy=0;exitX=0.5;exitY=0;exitDx=0;exitDy=0;shadow=0;" parent="WIyWlLk6GJQsqaUBKTNV-1" source="4EZs6NRq4k3DMp0Py4xL-54" target="Y6SLcv1Vtxi3gwNzsoC4-21" edge="1">
          <mxGeometry width="160" relative="1" as="geometry">
            <mxPoint x="640" y="-170" as="sourcePoint" />
            <mxPoint x="760" y="-250" as="targetPoint" />
            <Array as="points">
              <mxPoint x="530" y="-220" />
              <mxPoint x="740" y="-220" />
            </Array>
          </mxGeometry>
        </mxCell>
        <mxCell id="4EZs6NRq4k3DMp0Py4xL-67" value="" style="endArrow=none;html=1;rounded=0;entryX=0.5;entryY=0;entryDx=0;entryDy=0;shadow=0;" parent="WIyWlLk6GJQsqaUBKTNV-1" target="4EZs6NRq4k3DMp0Py4xL-58" edge="1">
          <mxGeometry width="50" height="50" relative="1" as="geometry">
            <mxPoint x="740" y="-220" as="sourcePoint" />
            <mxPoint x="830" y="-250" as="targetPoint" />
          </mxGeometry>
        </mxCell>
        <mxCell id="4EZs6NRq4k3DMp0Py4xL-69" value="" style="endArrow=none;html=1;rounded=0;entryX=0.5;entryY=0;entryDx=0;entryDy=0;shadow=0;" parent="WIyWlLk6GJQsqaUBKTNV-1" target="4EZs6NRq4k3DMp0Py4xL-62" edge="1">
          <mxGeometry width="50" height="50" relative="1" as="geometry">
            <mxPoint x="740" y="-220" as="sourcePoint" />
            <mxPoint x="750" y="-158" as="targetPoint" />
            <Array as="points">
              <mxPoint x="950" y="-220" />
            </Array>
          </mxGeometry>
        </mxCell>
        <mxCell id="4EZs6NRq4k3DMp0Py4xL-70" value="" style="endArrow=open;endSize=12;dashed=1;html=1;rounded=0;entryX=0.5;entryY=0;entryDx=0;entryDy=0;shadow=0;" parent="WIyWlLk6GJQsqaUBKTNV-1" target="Y6SLcv1Vtxi3gwNzsoC4-36" edge="1">
          <mxGeometry width="160" relative="1" as="geometry">
            <mxPoint x="835" y="-320.77" as="sourcePoint" />
            <mxPoint x="995" y="-320.77" as="targetPoint" />
            <Array as="points">
              <mxPoint x="1180" y="-320" />
            </Array>
          </mxGeometry>
        </mxCell>
        <mxCell id="4EZs6NRq4k3DMp0Py4xL-74" value="" style="endArrow=diamondThin;endFill=0;endSize=24;html=1;rounded=0;entryX=-0.002;entryY=0.529;entryDx=0;entryDy=0;entryPerimeter=0;shadow=0;" parent="WIyWlLk6GJQsqaUBKTNV-1" target="Y6SLcv1Vtxi3gwNzsoC4-36" edge="1">
          <mxGeometry width="160" relative="1" as="geometry">
            <mxPoint x="450" y="40" as="sourcePoint" />
            <mxPoint x="850" y="130" as="targetPoint" />
            <Array as="points">
              <mxPoint x="720" y="40" />
              <mxPoint x="720" y="80" />
            </Array>
          </mxGeometry>
        </mxCell>
        <mxCell id="4EZs6NRq4k3DMp0Py4xL-76" value="&lt;p style=&quot;margin:0px;margin-top:4px;text-align:center;&quot;&gt;&lt;i style=&quot;&quot;&gt;&lt;b&gt;Bank&lt;/b&gt;&lt;/i&gt;&lt;/p&gt;&lt;hr size=&quot;1&quot;&gt;&lt;p style=&quot;margin:0px;margin-left:4px;&quot;&gt;&lt;span style=&quot;background-color: initial;&quot;&gt;- accounts[] : BankAccount&lt;/span&gt;&lt;br&gt;&lt;/p&gt;&lt;hr size=&quot;1&quot;&gt;&lt;p style=&quot;margin:0px;margin-left:4px;&quot;&gt;&lt;span style=&quot;background-color: initial;&quot;&gt;+ check_account (bank_account : BankAccount) : Boolean&lt;/span&gt;&lt;br&gt;&lt;/p&gt;" style="verticalAlign=top;align=left;overflow=fill;fontSize=12;fontFamily=Helvetica;html=1;whiteSpace=wrap;shadow=0;gradientDirection=north;backgroundOutline=0;gradientColor=#99F1FF;" parent="WIyWlLk6GJQsqaUBKTNV-1" vertex="1">
          <mxGeometry x="549" y="240" width="360" height="160" as="geometry" />
        </mxCell>
        <mxCell id="4EZs6NRq4k3DMp0Py4xL-77" value="QNB" style="swimlane;fontStyle=1;align=center;verticalAlign=top;childLayout=stackLayout;horizontal=1;startSize=26;horizontalStack=0;resizeParent=1;resizeParentMax=0;resizeLast=0;collapsible=1;marginBottom=0;whiteSpace=wrap;html=1;shadow=0;fillColor=#dae8fc;strokeColor=#6c8ebf;" parent="WIyWlLk6GJQsqaUBKTNV-1" vertex="1">
          <mxGeometry x="760" y="567" width="160" height="34" as="geometry" />
        </mxCell>
        <mxCell id="4EZs6NRq4k3DMp0Py4xL-79" value="" style="line;strokeWidth=1;align=left;verticalAlign=middle;spacingTop=-1;spacingLeft=3;spacingRight=3;rotatable=0;labelPosition=right;points=[];portConstraint=eastwest;shadow=0;" parent="4EZs6NRq4k3DMp0Py4xL-77" vertex="1">
          <mxGeometry y="26" width="160" height="8" as="geometry" />
        </mxCell>
        <mxCell id="4EZs6NRq4k3DMp0Py4xL-81" value="CIB" style="swimlane;fontStyle=1;align=center;verticalAlign=top;childLayout=stackLayout;horizontal=1;startSize=26;horizontalStack=0;resizeParent=1;resizeParentMax=0;resizeLast=0;collapsible=1;marginBottom=0;whiteSpace=wrap;html=1;shadow=0;fillColor=#dae8fc;strokeColor=#6c8ebf;" parent="WIyWlLk6GJQsqaUBKTNV-1" vertex="1">
          <mxGeometry x="540" y="567" width="160" height="34" as="geometry" />
        </mxCell>
        <mxCell id="4EZs6NRq4k3DMp0Py4xL-83" value="" style="line;strokeWidth=1;align=left;verticalAlign=middle;spacingTop=-1;spacingLeft=3;spacingRight=3;rotatable=0;labelPosition=right;points=[];portConstraint=eastwest;shadow=0;" parent="4EZs6NRq4k3DMp0Py4xL-81" vertex="1">
          <mxGeometry y="26" width="160" height="8" as="geometry" />
        </mxCell>
        <mxCell id="4EZs6NRq4k3DMp0Py4xL-85" value="" style="endArrow=block;endSize=16;endFill=0;html=1;rounded=0;exitX=0.5;exitY=0;exitDx=0;exitDy=0;shadow=0;" parent="WIyWlLk6GJQsqaUBKTNV-1" source="4EZs6NRq4k3DMp0Py4xL-81" target="4EZs6NRq4k3DMp0Py4xL-76" edge="1">
          <mxGeometry width="160" relative="1" as="geometry">
            <mxPoint x="520" y="489" as="sourcePoint" />
            <mxPoint x="725" y="429" as="targetPoint" />
            <Array as="points">
              <mxPoint x="620" y="490" />
              <mxPoint x="729" y="490" />
              <mxPoint x="729" y="459" />
            </Array>
          </mxGeometry>
        </mxCell>
        <mxCell id="4EZs6NRq4k3DMp0Py4xL-86" value="" style="endArrow=none;html=1;rounded=0;exitX=0.5;exitY=0;exitDx=0;exitDy=0;shadow=0;" parent="WIyWlLk6GJQsqaUBKTNV-1" source="4EZs6NRq4k3DMp0Py4xL-77" edge="1">
          <mxGeometry width="50" height="50" relative="1" as="geometry">
            <mxPoint x="770" y="493" as="sourcePoint" />
            <mxPoint x="730" y="490" as="targetPoint" />
            <Array as="points">
              <mxPoint x="840" y="490" />
              <mxPoint x="730" y="490" />
            </Array>
          </mxGeometry>
        </mxCell>
        <mxCell id="4EZs6NRq4k3DMp0Py4xL-87" value="" style="endArrow=none;html=1;rounded=0;entryX=0;entryY=0.5;entryDx=0;entryDy=0;exitX=1;exitY=0.75;exitDx=0;exitDy=0;shadow=0;" parent="WIyWlLk6GJQsqaUBKTNV-1" source="4EZs6NRq4k3DMp0Py4xL-76" target="Y6SLcv1Vtxi3gwNzsoC4-34" edge="1">
          <mxGeometry width="50" height="50" relative="1" as="geometry">
            <mxPoint x="700" y="250" as="sourcePoint" />
            <mxPoint x="750" y="200" as="targetPoint" />
          </mxGeometry>
        </mxCell>
        <mxCell id="4yJ8YZaCr2LvGp134QOH-4" value="" style="endArrow=none;html=1;edgeStyle=orthogonalEdgeStyle;rounded=0;shadow=0;" parent="WIyWlLk6GJQsqaUBKTNV-1" target="Y6SLcv1Vtxi3gwNzsoC4-39" edge="1">
          <mxGeometry relative="1" as="geometry">
            <mxPoint x="440" y="80" as="sourcePoint" />
            <mxPoint x="1426" y="270" as="targetPoint" />
            <Array as="points">
              <mxPoint x="500" y="80" />
              <mxPoint x="500" y="440" />
            </Array>
          </mxGeometry>
        </mxCell>
      </root>
    </mxGraphModel>
  </diagram>
</mxfile>
